<svg width="242" height="36" viewBox="0 0 242 36" fill="none" xmlns="http://www.w3.org/2000/svg">
<path d="M13.608 31.18C11.736 31.18 10.032 30.82 8.496 30.1C6.984 29.356 5.676 28.384 4.572 27.184C3.492 25.96 2.652 24.568 2.052 23.008C1.452 21.448 1.152 19.852 1.152 18.22C1.152 16.516 1.464 14.884 2.088 13.324C2.736 11.764 3.612 10.384 4.716 9.184C5.844 7.984 7.176 7.036 8.712 6.34C10.248 5.62 11.916 5.26 13.716 5.26C15.564 5.26 17.244 5.644 18.756 6.412C20.292 7.156 21.6 8.14 22.68 9.364C23.76 10.588 24.6 11.98 25.2 13.54C25.8 15.1 26.1 16.684 26.1 18.292C26.1 19.996 25.788 21.628 25.164 23.188C24.54 24.724 23.676 26.092 22.572 27.292C21.468 28.468 20.148 29.416 18.612 30.136C17.076 30.832 15.408 31.18 13.608 31.18ZM6.192 18.22C6.192 19.324 6.36 20.392 6.696 21.424C7.032 22.456 7.512 23.368 8.136 24.16C8.784 24.952 9.564 25.588 10.476 26.068C11.412 26.548 12.468 26.788 13.644 26.788C14.844 26.788 15.9 26.548 16.812 26.068C17.748 25.564 18.528 24.904 19.152 24.088C19.8 23.272 20.28 22.36 20.592 21.352C20.928 20.32 21.096 19.276 21.096 18.22C21.096 17.116 20.916 16.048 20.556 15.016C20.22 13.984 19.728 13.072 19.08 12.28C18.456 11.488 17.676 10.864 16.74 10.408C15.828 9.928 14.796 9.688 13.644 9.688C12.444 9.688 11.376 9.94 10.44 10.444C9.504 10.924 8.724 11.572 8.1 12.388C7.476 13.18 6.996 14.092 6.66 15.124C6.348 16.132 6.192 17.164 6.192 18.22ZM51.0789 24.412C51.0789 25.492 50.8629 26.44 50.4309 27.256C49.9989 28.072 49.3989 28.756 48.6309 29.308C47.8869 29.86 47.0109 30.28 46.0029 30.568C45.0189 30.856 43.9629 31 42.8349 31H30.4869V5.44H44.1669C45.0549 5.44 45.8589 5.632 46.5789 6.016C47.2989 6.4 47.9109 6.904 48.4149 7.528C48.9189 8.128 49.3029 8.824 49.5669 9.616C49.8549 10.384 49.9989 11.164 49.9989 11.956C49.9989 13.204 49.6869 14.38 49.0629 15.484C48.4389 16.564 47.5269 17.368 46.3269 17.896C47.7909 18.328 48.9429 19.108 49.7829 20.236C50.6469 21.34 51.0789 22.732 51.0789 24.412ZM46.0749 23.476C46.0749 23.02 45.9909 22.588 45.8229 22.18C45.6789 21.748 45.4749 21.376 45.2109 21.064C44.9469 20.752 44.6349 20.512 44.2749 20.344C43.9149 20.152 43.5189 20.056 43.0869 20.056H35.4549V26.788H42.8349C43.2909 26.788 43.7109 26.704 44.0949 26.536C44.5029 26.368 44.8509 26.14 45.1389 25.852C45.4269 25.54 45.6549 25.18 45.8229 24.772C45.9909 24.364 46.0749 23.932 46.0749 23.476ZM35.4549 9.688V16.132H42.0789C42.9189 16.132 43.6269 15.844 44.2029 15.268C44.8029 14.692 45.1029 13.9 45.1029 12.892C45.1029 11.908 44.8269 11.128 44.2749 10.552C43.7469 9.976 43.0869 9.688 42.2949 9.688H35.4549Z" fill="#D2AC47"/>
<path d="M70.26 14H63.936V5.48H65.58V12.548H68.904V5.48H70.548V12.548H71.82V16.124H70.26V14ZM79.5952 12.548V14H73.6792V5.48H79.4872V6.932H75.3352V8.984H78.9232V10.328H75.3352V12.548H79.5952ZM88.8053 5.48V14H87.1613V10.364H83.2973V14H81.6413V5.48H83.2973V8.924H87.1613V5.48H88.8053ZM97.7091 6.932H94.9851V14H93.3411V6.932H90.6171V5.48H97.7091V6.932ZM99.5228 14V5.48H103.135C103.527 5.48 103.887 5.564 104.215 5.732C104.551 5.892 104.839 6.108 105.079 6.38C105.319 6.644 105.507 6.948 105.643 7.292C105.779 7.628 105.847 7.968 105.847 8.312C105.847 8.672 105.783 9.024 105.655 9.368C105.527 9.704 105.347 10.004 105.115 10.268C104.883 10.532 104.603 10.744 104.275 10.904C103.947 11.064 103.587 11.144 103.195 11.144H101.179V14H99.5228ZM101.179 9.692H103.099C103.403 9.692 103.655 9.568 103.855 9.32C104.063 9.072 104.167 8.736 104.167 8.312C104.167 8.096 104.135 7.904 104.071 7.736C104.007 7.56 103.923 7.412 103.819 7.292C103.715 7.172 103.591 7.084 103.447 7.028C103.311 6.964 103.171 6.932 103.027 6.932H101.179V9.692ZM110.805 9.68C110.805 9.16 110.897 8.648 111.081 8.144C111.273 7.632 111.549 7.176 111.909 6.776C112.269 6.376 112.709 6.052 113.229 5.804C113.749 5.556 114.341 5.432 115.005 5.432C115.789 5.432 116.465 5.604 117.033 5.948C117.609 6.292 118.037 6.74 118.317 7.292L117.045 8.168C116.933 7.928 116.797 7.728 116.637 7.568C116.477 7.4 116.305 7.268 116.121 7.172C115.937 7.076 115.745 7.008 115.545 6.968C115.345 6.92 115.149 6.896 114.957 6.896C114.541 6.896 114.177 6.98 113.865 7.148C113.561 7.316 113.305 7.536 113.097 7.808C112.897 8.072 112.745 8.376 112.641 8.72C112.537 9.056 112.485 9.392 112.485 9.728C112.485 10.104 112.545 10.468 112.665 10.82C112.785 11.164 112.953 11.468 113.169 11.732C113.393 11.996 113.657 12.208 113.961 12.368C114.273 12.528 114.613 12.608 114.981 12.608C115.173 12.608 115.373 12.584 115.581 12.536C115.789 12.488 115.985 12.412 116.169 12.308C116.361 12.204 116.537 12.072 116.697 11.912C116.857 11.744 116.985 11.544 117.081 11.312L118.437 12.092C118.301 12.412 118.105 12.696 117.849 12.944C117.601 13.184 117.317 13.388 116.997 13.556C116.685 13.724 116.349 13.852 115.989 13.94C115.629 14.028 115.277 14.072 114.933 14.072C114.325 14.072 113.769 13.944 113.265 13.688C112.761 13.432 112.325 13.1 111.957 12.692C111.597 12.276 111.313 11.808 111.105 11.288C110.905 10.76 110.805 10.224 110.805 9.68ZM123.822 14.06C123.198 14.06 122.63 13.94 122.118 13.7C121.614 13.452 121.178 13.128 120.81 12.728C120.45 12.32 120.17 11.856 119.97 11.336C119.77 10.816 119.67 10.284 119.67 9.74C119.67 9.172 119.774 8.628 119.982 8.108C120.198 7.588 120.49 7.128 120.858 6.728C121.234 6.328 121.678 6.012 122.19 5.78C122.702 5.54 123.258 5.42 123.858 5.42C124.474 5.42 125.034 5.548 125.538 5.804C126.05 6.052 126.486 6.38 126.846 6.788C127.206 7.196 127.486 7.66 127.686 8.18C127.886 8.7 127.986 9.228 127.986 9.764C127.986 10.332 127.882 10.876 127.674 11.396C127.466 11.908 127.178 12.364 126.81 12.764C126.442 13.156 126.002 13.472 125.49 13.712C124.978 13.944 124.422 14.06 123.822 14.06ZM121.35 9.74C121.35 10.108 121.406 10.464 121.518 10.808C121.63 11.152 121.79 11.456 121.998 11.72C122.214 11.984 122.474 12.196 122.778 12.356C123.09 12.516 123.442 12.596 123.834 12.596C124.234 12.596 124.586 12.516 124.89 12.356C125.202 12.188 125.462 11.968 125.67 11.696C125.886 11.424 126.046 11.12 126.15 10.784C126.262 10.44 126.318 10.092 126.318 9.74C126.318 9.372 126.258 9.016 126.138 8.672C126.026 8.328 125.862 8.024 125.646 7.76C125.438 7.496 125.178 7.288 124.866 7.136C124.562 6.976 124.218 6.896 123.834 6.896C123.434 6.896 123.078 6.98 122.766 7.148C122.454 7.308 122.194 7.524 121.986 7.796C121.778 8.06 121.618 8.364 121.506 8.708C121.402 9.044 121.35 9.388 121.35 9.74ZM136.948 14V8.36L134.752 12.56H133.852L131.656 8.36V14H130V5.48H131.776L134.296 10.328L136.84 5.48H138.604V14H136.948ZM148.338 5.48V14H146.694V10.364H142.83V14H141.174V5.48H142.83V8.924H146.694V5.48H148.338ZM154.517 14.06C153.893 14.06 153.325 13.94 152.813 13.7C152.309 13.452 151.873 13.128 151.505 12.728C151.145 12.32 150.865 11.856 150.665 11.336C150.465 10.816 150.365 10.284 150.365 9.74C150.365 9.172 150.469 8.628 150.677 8.108C150.893 7.588 151.185 7.128 151.553 6.728C151.929 6.328 152.373 6.012 152.885 5.78C153.397 5.54 153.953 5.42 154.553 5.42C155.169 5.42 155.729 5.548 156.233 5.804C156.745 6.052 157.181 6.38 157.541 6.788C157.901 7.196 158.181 7.66 158.381 8.18C158.581 8.7 158.681 9.228 158.681 9.764C158.681 10.332 158.577 10.876 158.369 11.396C158.161 11.908 157.873 12.364 157.505 12.764C157.137 13.156 156.697 13.472 156.185 13.712C155.673 13.944 155.117 14.06 154.517 14.06ZM152.045 9.74C152.045 10.108 152.101 10.464 152.213 10.808C152.325 11.152 152.485 11.456 152.693 11.72C152.909 11.984 153.169 12.196 153.473 12.356C153.785 12.516 154.137 12.596 154.529 12.596C154.929 12.596 155.281 12.516 155.585 12.356C155.897 12.188 156.157 11.968 156.365 11.696C156.581 11.424 156.741 11.12 156.845 10.784C156.957 10.44 157.013 10.092 157.013 9.74C157.013 9.372 156.953 9.016 156.833 8.672C156.721 8.328 156.557 8.024 156.341 7.76C156.133 7.496 155.873 7.288 155.561 7.136C155.257 6.976 154.913 6.896 154.529 6.896C154.129 6.896 153.773 6.98 153.461 7.148C153.149 7.308 152.889 7.524 152.681 7.796C152.473 8.06 152.313 8.364 152.201 8.708C152.097 9.044 152.045 9.388 152.045 9.74ZM166.633 6.932H163.909V14H162.265V6.932H159.541V5.48H166.633V6.932ZM174.363 12.548V14H168.447V5.48H174.255V6.932H170.103V8.984H173.691V10.328H170.103V12.548H174.363ZM176.409 14V5.48H180.021C180.413 5.48 180.773 5.564 181.101 5.732C181.437 5.892 181.725 6.108 181.965 6.38C182.205 6.644 182.393 6.948 182.529 7.292C182.665 7.628 182.733 7.968 182.733 8.312C182.733 8.672 182.669 9.024 182.541 9.368C182.413 9.704 182.233 10.004 182.001 10.268C181.769 10.532 181.489 10.744 181.161 10.904C180.833 11.064 180.473 11.144 180.081 11.144H178.065V14H176.409ZM178.065 9.692H179.985C180.289 9.692 180.541 9.568 180.741 9.32C180.949 9.072 181.053 8.736 181.053 8.312C181.053 8.096 181.021 7.904 180.957 7.736C180.893 7.56 180.809 7.412 180.705 7.292C180.601 7.172 180.477 7.084 180.333 7.028C180.197 6.964 180.057 6.932 179.913 6.932H178.065V9.692ZM186.49 5.48H187.954L191.194 14H189.49L188.698 11.876H185.722L184.942 14H183.238L186.49 5.48ZM188.398 10.712L187.222 7.364L185.998 10.712H188.398ZM192.884 5.48H199.904V14H198.26V6.932H194.528V14H192.884V5.48ZM202.487 14V5.48H204.143V14H202.487ZM206.711 14V5.48H208.367V14H206.711ZM205.715 4.52V3.092H207.047V4.52H205.715ZM208.019 4.52V3.092H209.351V4.52H208.019ZM67.536 31.06C66.912 31.06 66.344 30.94 65.832 30.7C65.328 30.452 64.892 30.128 64.524 29.728C64.164 29.32 63.884 28.856 63.684 28.336C63.484 27.816 63.384 27.284 63.384 26.74C63.384 26.172 63.488 25.628 63.696 25.108C63.912 24.588 64.204 24.128 64.572 23.728C64.948 23.328 65.392 23.012 65.904 22.78C66.416 22.54 66.972 22.42 67.572 22.42C68.188 22.42 68.748 22.548 69.252 22.804C69.764 23.052 70.2 23.38 70.56 23.788C70.92 24.196 71.2 24.66 71.4 25.18C71.6 25.7 71.7 26.228 71.7 26.764C71.7 27.332 71.596 27.876 71.388 28.396C71.18 28.908 70.892 29.364 70.524 29.764C70.156 30.156 69.716 30.472 69.204 30.712C68.692 30.944 68.136 31.06 67.536 31.06ZM65.064 26.74C65.064 27.108 65.12 27.464 65.232 27.808C65.344 28.152 65.504 28.456 65.712 28.72C65.928 28.984 66.188 29.196 66.492 29.356C66.804 29.516 67.156 29.596 67.548 29.596C67.948 29.596 68.3 29.516 68.604 29.356C68.916 29.188 69.176 28.968 69.384 28.696C69.6 28.424 69.76 28.12 69.864 27.784C69.976 27.44 70.032 27.092 70.032 26.74C70.032 26.372 69.972 26.016 69.852 25.672C69.74 25.328 69.576 25.024 69.36 24.76C69.152 24.496 68.892 24.288 68.58 24.136C68.276 23.976 67.932 23.896 67.548 23.896C67.148 23.896 66.792 23.98 66.48 24.148C66.168 24.308 65.908 24.524 65.7 24.796C65.492 25.06 65.332 25.364 65.22 25.708C65.116 26.044 65.064 26.388 65.064 26.74ZM75.3583 25.984H76.0303L78.6223 22.48H80.4943L77.4343 26.596L80.7703 31H78.9223L76.1863 27.472H75.3583V31H73.7143V22.48H75.3583V25.984ZM81.3706 26.68C81.3706 26.16 81.4626 25.648 81.6466 25.144C81.8386 24.632 82.1146 24.176 82.4746 23.776C82.8346 23.376 83.2746 23.052 83.7946 22.804C84.3146 22.556 84.9066 22.432 85.5706 22.432C86.3546 22.432 87.0306 22.604 87.5986 22.948C88.1746 23.292 88.6026 23.74 88.8826 24.292L87.6106 25.168C87.4986 24.928 87.3626 24.728 87.2026 24.568C87.0426 24.4 86.8706 24.268 86.6866 24.172C86.5026 24.076 86.3106 24.008 86.1106 23.968C85.9106 23.92 85.7146 23.896 85.5226 23.896C85.1066 23.896 84.7426 23.98 84.4306 24.148C84.1266 24.316 83.8706 24.536 83.6626 24.808C83.4626 25.072 83.3106 25.376 83.2066 25.72C83.1026 26.056 83.0506 26.392 83.0506 26.728C83.0506 27.104 83.1106 27.468 83.2306 27.82C83.3506 28.164 83.5186 28.468 83.7346 28.732C83.9586 28.996 84.2226 29.208 84.5266 29.368C84.8386 29.528 85.1786 29.608 85.5466 29.608C85.7386 29.608 85.9386 29.584 86.1466 29.536C86.3546 29.488 86.5506 29.412 86.7346 29.308C86.9266 29.204 87.1026 29.072 87.2626 28.912C87.4226 28.744 87.5506 28.544 87.6466 28.312L89.0026 29.092C88.8666 29.412 88.6706 29.696 88.4146 29.944C88.1666 30.184 87.8826 30.388 87.5626 30.556C87.2506 30.724 86.9146 30.852 86.5546 30.94C86.1946 31.028 85.8426 31.072 85.4986 31.072C84.8906 31.072 84.3346 30.944 83.8306 30.688C83.3266 30.432 82.8906 30.1 82.5226 29.692C82.1626 29.276 81.8786 28.808 81.6706 28.288C81.4706 27.76 81.3706 27.224 81.3706 26.68ZM93.14 22.48H94.604L97.844 31H96.14L95.348 28.876H92.372L91.592 31H89.888L93.14 22.48ZM95.048 27.712L93.872 24.364L92.648 27.712H95.048ZM106.698 22.48V31H105.054V27.364H101.19V31H99.5345V22.48H101.19V25.924H105.054V22.48H106.698ZM110.91 28.456L115.254 22.48H116.514V31H114.87V25.156L110.586 31H109.266V22.48H110.91V28.456ZM129.415 28.804C129.415 29.164 129.343 29.48 129.199 29.752C129.055 30.024 128.855 30.252 128.599 30.436C128.351 30.62 128.059 30.76 127.723 30.856C127.395 30.952 127.043 31 126.667 31H122.551V22.48H127.111C127.407 22.48 127.675 22.544 127.915 22.672C128.155 22.8 128.359 22.968 128.527 23.176C128.695 23.376 128.823 23.608 128.911 23.872C129.007 24.128 129.055 24.388 129.055 24.652C129.055 25.068 128.951 25.46 128.743 25.828C128.535 26.188 128.231 26.456 127.831 26.632C128.319 26.776 128.703 27.036 128.983 27.412C129.271 27.78 129.415 28.244 129.415 28.804ZM127.747 28.492C127.747 28.34 127.719 28.196 127.663 28.06C127.615 27.916 127.547 27.792 127.459 27.688C127.371 27.584 127.267 27.504 127.147 27.448C127.027 27.384 126.895 27.352 126.751 27.352H124.207V29.596H126.667C126.819 29.596 126.959 29.568 127.087 29.512C127.223 29.456 127.339 29.38 127.435 29.284C127.531 29.18 127.607 29.06 127.663 28.924C127.719 28.788 127.747 28.644 127.747 28.492ZM124.207 23.896V26.044H126.415C126.695 26.044 126.931 25.948 127.123 25.756C127.323 25.564 127.423 25.3 127.423 24.964C127.423 24.636 127.331 24.376 127.147 24.184C126.971 23.992 126.751 23.896 126.487 23.896H124.207ZM135.194 31.06C134.57 31.06 134.002 30.94 133.49 30.7C132.986 30.452 132.55 30.128 132.182 29.728C131.822 29.32 131.542 28.856 131.342 28.336C131.142 27.816 131.042 27.284 131.042 26.74C131.042 26.172 131.146 25.628 131.354 25.108C131.57 24.588 131.862 24.128 132.23 23.728C132.606 23.328 133.05 23.012 133.562 22.78C134.074 22.54 134.63 22.42 135.23 22.42C135.846 22.42 136.406 22.548 136.91 22.804C137.422 23.052 137.858 23.38 138.218 23.788C138.578 24.196 138.858 24.66 139.058 25.18C139.258 25.7 139.358 26.228 139.358 26.764C139.358 27.332 139.254 27.876 139.046 28.396C138.838 28.908 138.55 29.364 138.182 29.764C137.814 30.156 137.374 30.472 136.862 30.712C136.35 30.944 135.794 31.06 135.194 31.06ZM132.722 26.74C132.722 27.108 132.778 27.464 132.89 27.808C133.002 28.152 133.162 28.456 133.37 28.72C133.586 28.984 133.846 29.196 134.15 29.356C134.462 29.516 134.814 29.596 135.206 29.596C135.606 29.596 135.958 29.516 136.262 29.356C136.574 29.188 136.834 28.968 137.042 28.696C137.258 28.424 137.418 28.12 137.522 27.784C137.634 27.44 137.69 27.092 137.69 26.74C137.69 26.372 137.63 26.016 137.51 25.672C137.398 25.328 137.234 25.024 137.018 24.76C136.81 24.496 136.55 24.288 136.238 24.136C135.934 23.976 135.59 23.896 135.206 23.896C134.806 23.896 134.45 23.98 134.138 24.148C133.826 24.308 133.566 24.524 133.358 24.796C133.15 25.06 132.99 25.364 132.878 25.708C132.774 26.044 132.722 26.388 132.722 26.74ZM143.733 25.228C143.645 26.324 143.525 27.244 143.373 27.988C143.221 28.732 143.013 29.336 142.749 29.8C142.485 30.256 142.157 30.584 141.765 30.784C141.373 30.984 140.893 31.084 140.325 31.084L140.229 29.596C140.501 29.572 140.737 29.504 140.937 29.392C141.145 29.28 141.321 29.06 141.465 28.732C141.617 28.404 141.745 27.936 141.849 27.328C141.953 26.712 142.049 25.896 142.137 24.88L142.341 22.48H147.501V31H145.857V23.932H143.841L143.733 25.228ZM153.697 31.06C153.073 31.06 152.505 30.94 151.993 30.7C151.489 30.452 151.053 30.128 150.685 29.728C150.325 29.32 150.045 28.856 149.845 28.336C149.645 27.816 149.545 27.284 149.545 26.74C149.545 26.172 149.649 25.628 149.857 25.108C150.073 24.588 150.365 24.128 150.733 23.728C151.109 23.328 151.553 23.012 152.065 22.78C152.577 22.54 153.133 22.42 153.733 22.42C154.349 22.42 154.909 22.548 155.413 22.804C155.925 23.052 156.361 23.38 156.721 23.788C157.081 24.196 157.361 24.66 157.561 25.18C157.761 25.7 157.861 26.228 157.861 26.764C157.861 27.332 157.757 27.876 157.549 28.396C157.341 28.908 157.053 29.364 156.685 29.764C156.317 30.156 155.877 30.472 155.365 30.712C154.853 30.944 154.297 31.06 153.697 31.06ZM151.225 26.74C151.225 27.108 151.281 27.464 151.393 27.808C151.505 28.152 151.665 28.456 151.873 28.72C152.089 28.984 152.349 29.196 152.653 29.356C152.965 29.516 153.317 29.596 153.709 29.596C154.109 29.596 154.461 29.516 154.765 29.356C155.077 29.188 155.337 28.968 155.545 28.696C155.761 28.424 155.921 28.12 156.025 27.784C156.137 27.44 156.193 27.092 156.193 26.74C156.193 26.372 156.133 26.016 156.013 25.672C155.901 25.328 155.737 25.024 155.521 24.76C155.313 24.496 155.053 24.288 154.741 24.136C154.437 23.976 154.093 23.896 153.709 23.896C153.309 23.896 152.953 23.98 152.641 24.148C152.329 24.308 152.069 24.524 151.861 24.796C151.653 25.06 151.493 25.364 151.381 25.708C151.277 26.044 151.225 26.388 151.225 26.74ZM169.847 22.48V31H159.875V22.48H161.519V29.548H164.039V22.48H165.683V29.548H168.203V22.48H169.847ZM174.063 28.456L178.407 22.48H179.667V31H178.023V25.156L173.739 31H172.419V22.48H174.063V28.456ZM189.397 22.48V31H187.753V27.364H183.889V31H182.233V22.48H183.889V25.924H187.753V22.48H189.397ZM195.577 31.06C194.953 31.06 194.385 30.94 193.873 30.7C193.369 30.452 192.933 30.128 192.565 29.728C192.205 29.32 191.925 28.856 191.725 28.336C191.525 27.816 191.425 27.284 191.425 26.74C191.425 26.172 191.529 25.628 191.737 25.108C191.953 24.588 192.245 24.128 192.613 23.728C192.989 23.328 193.433 23.012 193.945 22.78C194.457 22.54 195.013 22.42 195.613 22.42C196.229 22.42 196.789 22.548 197.293 22.804C197.805 23.052 198.241 23.38 198.601 23.788C198.961 24.196 199.241 24.66 199.441 25.18C199.641 25.7 199.741 26.228 199.741 26.764C199.741 27.332 199.637 27.876 199.429 28.396C199.221 28.908 198.933 29.364 198.565 29.764C198.197 30.156 197.757 30.472 197.245 30.712C196.733 30.944 196.177 31.06 195.577 31.06ZM193.105 26.74C193.105 27.108 193.161 27.464 193.273 27.808C193.385 28.152 193.545 28.456 193.753 28.72C193.969 28.984 194.229 29.196 194.533 29.356C194.845 29.516 195.197 29.596 195.589 29.596C195.989 29.596 196.341 29.516 196.645 29.356C196.957 29.188 197.217 28.968 197.425 28.696C197.641 28.424 197.801 28.12 197.905 27.784C198.017 27.44 198.073 27.092 198.073 26.74C198.073 26.372 198.013 26.016 197.893 25.672C197.781 25.328 197.617 25.024 197.401 24.76C197.193 24.496 196.933 24.288 196.621 24.136C196.317 23.976 195.973 23.896 195.589 23.896C195.189 23.896 194.833 23.98 194.521 24.148C194.209 24.308 193.949 24.524 193.741 24.796C193.533 25.06 193.373 25.364 193.261 25.708C193.157 26.044 193.105 26.388 193.105 26.74ZM201.755 31V22.48H203.411V31H201.755ZM200.759 21.52V20.092H202.091V21.52H200.759ZM203.063 21.52V20.092H204.395V21.52H203.063Z" fill="#212121"/>
</svg>
